<svg xmlns="http://www.w3.org/2000/svg" width="1600" height="1600" viewBox="0 0 1600 1600" version="1.1"><path d="M 732.979 566.030 C 722.737 567.224, 706.285 571.517, 697.126 575.384 C 672.080 585.959, 652.039 603.669, 636.022 629.385 C 615.329 662.607, 607.778 703.388, 613.133 753 C 614.217 763.044, 619.606 785.649, 622.675 793.026 C 632.777 817.311, 645.101 835.671, 661.242 850.485 C 678.886 866.677, 700.632 877.423, 724.368 881.678 C 735.621 883.695, 763.117 883.944, 774.500 882.131 C 801.867 877.773, 826.618 864.732, 846.207 844.350 C 874.008 815.423, 888.227 778.681, 889.717 731.925 C 891.477 676.676, 875.681 632.990, 842.352 600.930 C 817.968 577.474, 790.396 566.386, 754.500 565.598 C 746.250 565.417, 736.565 565.612, 732.979 566.030 M 286 724.589 L 286 878.177 349.250 877.758 C 409.305 877.361, 413.006 877.231, 422.512 875.191 C 442.884 870.820, 457.005 864.398, 473.485 852.011 C 511.049 823.778, 531.030 779.124, 531.007 723.460 C 530.986 673.786, 515.984 634.730, 486.234 606.900 C 463.774 585.889, 439.117 574.762, 409 572.044 C 402.675 571.474, 372.413 571.005, 341.750 571.003 L 286 571 286 724.589 M 989 724.500 L 989 878 1000.500 878 L 1012 878 1012.030 750.750 C 1012.050 669.801, 1012.407 624.092, 1013.012 625.128 C 1013.535 626.023, 1015.367 630.298, 1017.083 634.628 C 1018.799 638.958, 1022.369 647.675, 1025.015 654 C 1027.662 660.325, 1033.517 674.500, 1038.028 685.500 C 1042.538 696.500, 1048.694 711.350, 1051.708 718.500 C 1054.721 725.650, 1058.692 735.100, 1060.532 739.500 C 1066.218 753.099, 1090.886 811.868, 1096.001 824 C 1098.667 830.325, 1104.836 844.950, 1109.709 856.500 L 1118.569 877.500 1129.048 877.781 L 1139.528 878.063 1142.220 871.781 C 1143.701 868.327, 1146.975 860.550, 1149.497 854.500 C 1152.019 848.450, 1154.492 842.600, 1154.994 841.500 C 1156.679 837.806, 1223.743 678.644, 1228.942 666 C 1231.770 659.125, 1236.876 646.525, 1240.291 638 L 1246.500 622.500 1246.754 750.250 L 1247.008 878 1258.004 878 L 1269 878 1269 724.469 L 1269 570.938 1256.800 571.219 L 1244.601 571.500 1241.220 579.500 C 1229.937 606.201, 1226.559 614.237, 1223.985 620.500 C 1221.140 627.421, 1218.880 632.790, 1205.252 665 C 1201.412 674.075, 1196.671 685.325, 1194.717 690 C 1175.382 736.242, 1137.103 827.316, 1132.932 837 C 1131.392 840.575, 1129.816 843.413, 1129.429 843.308 C 1129.043 843.202, 1126.511 837.802, 1123.802 831.308 C 1121.094 824.813, 1115.101 810.500, 1110.484 799.500 C 1098.343 770.577, 1074.097 712.428, 1071.497 706 C 1070.274 702.975, 1059.484 677.100, 1047.519 648.500 C 1035.555 619.900, 1023.751 591.554, 1021.289 585.508 C 1018.826 579.463, 1016.388 573.725, 1015.871 572.758 C 1015.047 571.219, 1013.312 571, 1001.965 571 L 989 571 989 724.500 M 738.491 588.006 C 721.814 589.720, 706.088 595.045, 692 603.748 C 683.233 609.164, 665.298 626.600, 659.339 635.500 C 641.558 662.057, 634.009 692.417, 635.344 732 C 636.574 768.476, 645.702 796.456, 663.721 818.976 C 690.946 853.003, 725.691 866.293, 770.707 859.900 C 787.371 857.533, 804.452 849.895, 818.485 838.535 C 827.357 831.353, 828.123 830.604, 834.382 823 C 854.082 799.065, 863.862 772.668, 865.872 738 C 869.038 683.415, 853.884 640.711, 821.516 613 C 812.852 605.583, 800.688 598.201, 791.081 594.532 C 776.476 588.954, 755.092 586.300, 738.491 588.006 M 309 724.622 L 309 856.245 358.250 855.741 C 410.535 855.207, 417.189 854.670, 431.272 849.851 C 456.965 841.058, 479.429 820.278, 493.271 792.500 C 509.113 760.706, 512.068 710.105, 500.279 672.500 C 490.787 642.221, 467.556 615.195, 440.460 602.909 C 421.892 594.490, 407.958 593.009, 347.250 593.004 L 309 593 309 724.622 M 309.453 959.267 C 297.312 964.180, 290.991 973.298, 291.010 985.872 C 291.042 1007.518, 313.247 1020.008, 333.615 1009.835 C 337.784 1007.753, 339.081 1005.786, 337.094 1004.558 C 336.596 1004.250, 333.856 1005.208, 331.006 1006.687 C 311.884 1016.608, 289.583 999.238, 295.568 979.084 C 299.914 964.450, 316.266 957.492, 330.242 964.330 C 335.582 966.942, 338 967.146, 338 964.983 C 338 964.489, 335.904 962.856, 333.342 961.355 C 329.497 959.101, 327.273 958.573, 320.592 958.330 C 315.793 958.154, 311.260 958.536, 309.453 959.267 M 544.200 959.200 C 543.329 960.071, 543 967.439, 543 986.078 C 543 1007.591, 543.241 1011.955, 544.488 1012.990 C 546.633 1014.770, 546.930 1013.366, 547.236 1000 L 547.500 988.500 559.500 988 C 569.278 987.593, 571.500 987.222, 571.500 986 C 571.500 984.778, 569.278 984.407, 559.500 984 L 547.500 983.500 547.500 973 L 547.500 962.500 560.981 962.219 C 574.063 961.947, 578.184 960.992, 574.992 958.974 C 572.721 957.538, 545.663 957.737, 544.200 959.200 M 662.233 958.820 C 661.252 959.454, 661.027 965.697, 661.233 986.569 L 661.500 1013.500 676.986 1013.500 C 690.940 1013.500, 692.506 1013.327, 692.810 1011.750 C 693.118 1010.150, 691.937 1010, 679.039 1010 L 664.932 1010 665.216 999.250 L 665.500 988.500 677.500 988 C 687.278 987.593, 689.500 987.222, 689.500 986 C 689.500 984.763, 687.344 984.451, 677.216 984.219 L 664.933 983.938 665.216 973.219 L 665.500 962.500 679.318 962.221 C 691.766 961.970, 693.103 961.772, 692.805 960.221 C 692.514 958.701, 690.780 958.471, 677.987 958.251 C 670.019 958.113, 662.930 958.370, 662.233 958.820 M 774.688 958.646 C 774.309 959.024, 774 959.916, 774 960.628 C 774 961.566, 776.405 962.002, 782.750 962.211 L 791.500 962.500 791.767 987.750 C 792.026 1012.171, 792.099 1013, 794.017 1013 C 795.942 1013, 796 1012.260, 796 987.500 L 796 962 805.073 962 C 813.176 962, 814.111 961.813, 813.810 960.250 C 813.506 958.668, 811.647 958.474, 794.425 958.229 C 783.947 958.080, 775.066 958.268, 774.688 958.646 M 899.452 959.266 C 899.184 959.962, 899.086 972.449, 899.233 987.016 L 899.500 1013.500 914 1013.749 C 928.134 1013.992, 931.972 1013.381, 930.569 1011.112 C 930.120 1010.385, 925.224 1010, 916.441 1010 L 903 1010 903 999 L 903 988 915 988 C 926.333 988, 927 987.889, 927 986 C 927 984.111, 926.333 984, 915 984 L 903 984 903 973 L 903 962 916.441 962 C 929.477 962, 933.356 961.106, 929.878 958.904 C 927.578 957.447, 900.024 957.775, 899.452 959.266 M 1016.750 958.569 C 1016.337 958.990, 1016 971.408, 1016 986.167 C 1016 1012.333, 1016.050 1013, 1018 1013 C 1019.884 1013, 1020 1012.333, 1020 1001.500 L 1020 990 1027.040 990 C 1039.186 990, 1045 994.773, 1045 1004.745 C 1045 1008.852, 1047.260 1013, 1049.498 1013 C 1051.748 1013, 1052.315 1011.006, 1050.603 1009.114 C 1049.727 1008.146, 1048.720 1005.137, 1048.365 1002.427 C 1047.621 996.755, 1046.083 993.290, 1043.115 990.604 L 1041.026 988.714 1044.488 984.882 C 1046.392 982.775, 1048.241 979.887, 1048.598 978.465 C 1049.569 974.596, 1048.398 968.010, 1046.219 965.087 C 1042.495 960.090, 1038.366 958.563, 1027.507 958.169 C 1022.003 957.969, 1017.163 958.149, 1016.750 958.569 M 1137.658 958.675 C 1136.616 959.718, 1136.880 1012.808, 1137.931 1013.457 C 1140.045 1014.764, 1140.515 1010.289, 1140.823 985.933 C 1141.090 964.821, 1140.899 960.161, 1139.731 959.192 C 1138.953 958.546, 1138.020 958.313, 1137.658 958.675 M 438.141 960.750 C 435.357 965.989, 419.004 1011.567, 419.471 1012.785 C 420.391 1015.183, 422.553 1012.544, 424.976 1006.063 C 426.309 1002.501, 427.877 1000.004, 428.960 999.721 C 429.942 999.464, 435.453 999.173, 441.207 999.074 C 452.944 998.873, 452.733 998.763, 455.520 1006.500 C 457.795 1012.819, 459.646 1015.087, 460.567 1012.686 C 461.151 1011.165, 457.702 1000.908, 448.568 977 C 446.782 972.325, 444.537 966.362, 443.578 963.750 C 441.774 958.834, 439.752 957.718, 438.141 960.750 M 1244.206 964.203 C 1232.051 995.388, 1226.706 1010.791, 1227.407 1012.618 C 1228.404 1015.217, 1230.227 1012.799, 1232.983 1005.221 L 1235.265 998.942 1247.877 999.221 L 1260.488 999.500 1262.994 1006.241 C 1264.774 1011.029, 1266.007 1012.985, 1267.250 1012.991 C 1268.213 1012.996, 1269 1012.628, 1269 1012.173 C 1269 1011.718, 1266.997 1005.980, 1264.549 999.423 C 1247.667 954.205, 1247.927 954.655, 1244.206 964.203 M 1020.750 962.564 C 1020.337 962.987, 1020 968.433, 1020 974.667 L 1020 986 1028.050 986 C 1039.776 986, 1045 982.481, 1045 974.582 C 1045 966.173, 1040.771 962.783, 1029.561 962.208 C 1025.127 961.981, 1021.163 962.141, 1020.750 962.564 M 1242.210 980.617 C 1239.366 988.118, 1237.282 994.647, 1237.579 995.127 C 1238.154 996.058, 1257.298 996.369, 1258.205 995.462 C 1258.775 994.891, 1249.363 969.033, 1248.114 967.740 C 1247.710 967.322, 1245.053 973.117, 1242.210 980.617 M 434.310 981.443 C 431.538 988.865, 429.509 995.176, 429.802 995.468 C 430.862 996.529, 451 996.022, 451 994.935 C 451 994.350, 450.135 991.762, 449.079 989.185 C 448.022 986.608, 445.814 980.914, 444.173 976.531 C 442.531 972.148, 440.774 968.425, 440.269 968.256 C 439.764 968.088, 437.082 974.022, 434.310 981.443" stroke="none" fill="#f6deb1" fill-rule="evenodd"/><path d="M 760 0.580 C 757.525 0.777, 748.075 1.432, 739 2.034 C 638.045 8.734, 527.446 39.824, 436 87.209 C 358.261 127.492, 295.509 173.335, 234.465 234.440 C 198.474 270.467, 176.535 296.181, 149.095 334.500 C 64.710 452.343, 16.101 584.308, 2.309 733 C -0.274 760.844, -0.265 838.843, 2.324 867 C 9.828 948.601, 26.323 1019.615, 54.470 1091.500 C 95.768 1196.971, 157.140 1289.690, 239.156 1370.521 C 269.155 1400.085, 296.568 1423.500, 327.500 1445.978 C 449.674 1534.759, 586.244 1585.276, 739 1598.190 C 763.071 1600.225, 842.370 1599.920, 866.500 1597.700 C 960.529 1589.049, 1042.541 1568.045, 1125.050 1531.483 C 1236.441 1482.122, 1336.602 1406.193, 1415.897 1311 C 1512.919 1194.526, 1574.815 1052.148, 1593.918 901.500 C 1596.443 881.593, 1598.987 852.679, 1598.994 843.809 C 1598.997 840.129, 1599.450 836.840, 1600 836.500 C 1600.639 836.105, 1600.994 822.090, 1600.985 797.691 C 1600.975 772.664, 1600.635 760.017, 1600 761 C 1599.319 762.054, 1599.024 760.567, 1599.010 756 C 1598.981 747.217, 1596.401 718.081, 1593.918 698.500 C 1566.184 479.791, 1448.902 282.260, 1269.433 151.987 C 1248.481 136.778, 1217.378 116.667, 1194 103.212 C 1180.654 95.531, 1140.634 75.270, 1127.500 69.546 C 1076.672 47.393, 1018.860 28.238, 973.613 18.557 C 911.368 5.239, 872.790 1.045, 808 0.552 C 784.075 0.369, 762.475 0.382, 760 0.580 M 732.979 566.030 C 722.737 567.224, 706.285 571.517, 697.126 575.384 C 672.080 585.959, 652.039 603.669, 636.022 629.385 C 615.329 662.607, 607.778 703.388, 613.133 753 C 614.217 763.044, 619.606 785.649, 622.675 793.026 C 632.777 817.311, 645.101 835.671, 661.242 850.485 C 678.886 866.677, 700.632 877.423, 724.368 881.678 C 735.621 883.695, 763.117 883.944, 774.500 882.131 C 801.867 877.773, 826.618 864.732, 846.207 844.350 C 874.008 815.423, 888.227 778.681, 889.717 731.925 C 891.477 676.676, 875.681 632.990, 842.352 600.930 C 817.968 577.474, 790.396 566.386, 754.500 565.598 C 746.250 565.417, 736.565 565.612, 732.979 566.030 M 286 724.589 L 286 878.177 349.250 877.758 C 409.305 877.361, 413.006 877.231, 422.512 875.191 C 442.884 870.820, 457.005 864.398, 473.485 852.011 C 511.049 823.778, 531.030 779.124, 531.007 723.460 C 530.986 673.786, 515.984 634.730, 486.234 606.900 C 463.774 585.889, 439.117 574.762, 409 572.044 C 402.675 571.474, 372.413 571.005, 341.750 571.003 L 286 571 286 724.589 M 989 724.500 L 989 878 1000.500 878 L 1012 878 1012.030 750.750 C 1012.050 669.801, 1012.407 624.092, 1013.012 625.128 C 1013.535 626.023, 1015.367 630.298, 1017.083 634.628 C 1018.799 638.958, 1022.369 647.675, 1025.015 654 C 1027.662 660.325, 1033.517 674.500, 1038.028 685.500 C 1042.538 696.500, 1048.694 711.350, 1051.708 718.500 C 1054.721 725.650, 1058.692 735.100, 1060.532 739.500 C 1066.218 753.099, 1090.886 811.868, 1096.001 824 C 1098.667 830.325, 1104.836 844.950, 1109.709 856.500 L 1118.569 877.500 1129.048 877.781 L 1139.528 878.063 1142.220 871.781 C 1143.701 868.327, 1146.975 860.550, 1149.497 854.500 C 1152.019 848.450, 1154.492 842.600, 1154.994 841.500 C 1156.679 837.806, 1223.743 678.644, 1228.942 666 C 1231.770 659.125, 1236.876 646.525, 1240.291 638 L 1246.500 622.500 1246.754 750.250 L 1247.008 878 1258.004 878 L 1269 878 1269 724.469 L 1269 570.938 1256.800 571.219 L 1244.601 571.500 1241.220 579.500 C 1229.937 606.201, 1226.559 614.237, 1223.985 620.500 C 1221.140 627.421, 1218.880 632.790, 1205.252 665 C 1201.412 674.075, 1196.671 685.325, 1194.717 690 C 1175.382 736.242, 1137.103 827.316, 1132.932 837 C 1131.392 840.575, 1129.816 843.413, 1129.429 843.308 C 1129.043 843.202, 1126.511 837.802, 1123.802 831.308 C 1121.094 824.813, 1115.101 810.500, 1110.484 799.500 C 1098.343 770.577, 1074.097 712.428, 1071.497 706 C 1070.274 702.975, 1059.484 677.100, 1047.519 648.500 C 1035.555 619.900, 1023.751 591.554, 1021.289 585.508 C 1018.826 579.463, 1016.388 573.725, 1015.871 572.758 C 1015.047 571.219, 1013.312 571, 1001.965 571 L 989 571 989 724.500 M 738.491 588.006 C 721.814 589.720, 706.088 595.045, 692 603.748 C 683.233 609.164, 665.298 626.600, 659.339 635.500 C 641.558 662.057, 634.009 692.417, 635.344 732 C 636.574 768.476, 645.702 796.456, 663.721 818.976 C 690.946 853.003, 725.691 866.293, 770.707 859.900 C 787.371 857.533, 804.452 849.895, 818.485 838.535 C 827.357 831.353, 828.123 830.604, 834.382 823 C 854.082 799.065, 863.862 772.668, 865.872 738 C 869.038 683.415, 853.884 640.711, 821.516 613 C 812.852 605.583, 800.688 598.201, 791.081 594.532 C 776.476 588.954, 755.092 586.300, 738.491 588.006 M 309 724.622 L 309 856.245 358.250 855.741 C 410.535 855.207, 417.189 854.670, 431.272 849.851 C 456.965 841.058, 479.429 820.278, 493.271 792.500 C 509.113 760.706, 512.068 710.105, 500.279 672.500 C 490.787 642.221, 467.556 615.195, 440.460 602.909 C 421.892 594.490, 407.958 593.009, 347.250 593.004 L 309 593 309 724.622 M 0.454 799 C 0.454 820.175, 0.587 828.837, 0.749 818.250 C 0.911 807.663, 0.911 790.337, 0.749 779.750 C 0.587 769.163, 0.454 777.825, 0.454 799 M 309.453 959.267 C 297.312 964.180, 290.991 973.298, 291.010 985.872 C 291.042 1007.518, 313.247 1020.008, 333.615 1009.835 C 337.784 1007.753, 339.081 1005.786, 337.094 1004.558 C 336.596 1004.250, 333.856 1005.208, 331.006 1006.687 C 311.884 1016.608, 289.583 999.238, 295.568 979.084 C 299.914 964.450, 316.266 957.492, 330.242 964.330 C 335.582 966.942, 338 967.146, 338 964.983 C 338 964.489, 335.904 962.856, 333.342 961.355 C 329.497 959.101, 327.273 958.573, 320.592 958.330 C 315.793 958.154, 311.260 958.536, 309.453 959.267 M 544.200 959.200 C 543.329 960.071, 543 967.439, 543 986.078 C 543 1007.591, 543.241 1011.955, 544.488 1012.990 C 546.633 1014.770, 546.930 1013.366, 547.236 1000 L 547.500 988.500 559.500 988 C 569.278 987.593, 571.500 987.222, 571.500 986 C 571.500 984.778, 569.278 984.407, 559.500 984 L 547.500 983.500 547.500 973 L 547.500 962.500 560.981 962.219 C 574.063 961.947, 578.184 960.992, 574.992 958.974 C 572.721 957.538, 545.663 957.737, 544.200 959.200 M 662.233 958.820 C 661.252 959.454, 661.027 965.697, 661.233 986.569 L 661.500 1013.500 676.986 1013.500 C 690.940 1013.500, 692.506 1013.327, 692.810 1011.750 C 693.118 1010.150, 691.937 1010, 679.039 1010 L 664.932 1010 665.216 999.250 L 665.500 988.500 677.500 988 C 687.278 987.593, 689.500 987.222, 689.500 986 C 689.500 984.763, 687.344 984.451, 677.216 984.219 L 664.933 983.938 665.216 973.219 L 665.500 962.500 679.318 962.221 C 691.766 961.970, 693.103 961.772, 692.805 960.221 C 692.514 958.701, 690.780 958.471, 677.987 958.251 C 670.019 958.113, 662.930 958.370, 662.233 958.820 M 774.688 958.646 C 774.309 959.024, 774 959.916, 774 960.628 C 774 961.566, 776.405 962.002, 782.750 962.211 L 791.500 962.500 791.767 987.750 C 792.026 1012.171, 792.099 1013, 794.017 1013 C 795.942 1013, 796 1012.260, 796 987.500 L 796 962 805.073 962 C 813.176 962, 814.111 961.813, 813.810 960.250 C 813.506 958.668, 811.647 958.474, 794.425 958.229 C 783.947 958.080, 775.066 958.268, 774.688 958.646 M 899.452 959.266 C 899.184 959.962, 899.086 972.449, 899.233 987.016 L 899.500 1013.500 914 1013.749 C 928.134 1013.992, 931.972 1013.381, 930.569 1011.112 C 930.120 1010.385, 925.224 1010, 916.441 1010 L 903 1010 903 999 L 903 988 915 988 C 926.333 988, 927 987.889, 927 986 C 927 984.111, 926.333 984, 915 984 L 903 984 903 973 L 903 962 916.441 962 C 929.477 962, 933.356 961.106, 929.878 958.904 C 927.578 957.447, 900.024 957.775, 899.452 959.266 M 1016.750 958.569 C 1016.337 958.990, 1016 971.408, 1016 986.167 C 1016 1012.333, 1016.050 1013, 1018 1013 C 1019.884 1013, 1020 1012.333, 1020 1001.500 L 1020 990 1027.040 990 C 1039.186 990, 1045 994.773, 1045 1004.745 C 1045 1008.852, 1047.260 1013, 1049.498 1013 C 1051.748 1013, 1052.315 1011.006, 1050.603 1009.114 C 1049.727 1008.146, 1048.720 1005.137, 1048.365 1002.427 C 1047.621 996.755, 1046.083 993.290, 1043.115 990.604 L 1041.026 988.714 1044.488 984.882 C 1046.392 982.775, 1048.241 979.887, 1048.598 978.465 C 1049.569 974.596, 1048.398 968.010, 1046.219 965.087 C 1042.495 960.090, 1038.366 958.563, 1027.507 958.169 C 1022.003 957.969, 1017.163 958.149, 1016.750 958.569 M 1137.658 958.675 C 1136.616 959.718, 1136.880 1012.808, 1137.931 1013.457 C 1140.045 1014.764, 1140.515 1010.289, 1140.823 985.933 C 1141.090 964.821, 1140.899 960.161, 1139.731 959.192 C 1138.953 958.546, 1138.020 958.313, 1137.658 958.675 M 438.141 960.750 C 435.357 965.989, 419.004 1011.567, 419.471 1012.785 C 420.391 1015.183, 422.553 1012.544, 424.976 1006.063 C 426.309 1002.501, 427.877 1000.004, 428.960 999.721 C 429.942 999.464, 435.453 999.173, 441.207 999.074 C 452.944 998.873, 452.733 998.763, 455.520 1006.500 C 457.795 1012.819, 459.646 1015.087, 460.567 1012.686 C 461.151 1011.165, 457.702 1000.908, 448.568 977 C 446.782 972.325, 444.537 966.362, 443.578 963.750 C 441.774 958.834, 439.752 957.718, 438.141 960.750 M 1244.206 964.203 C 1232.051 995.388, 1226.706 1010.791, 1227.407 1012.618 C 1228.404 1015.217, 1230.227 1012.799, 1232.983 1005.221 L 1235.265 998.942 1247.877 999.221 L 1260.488 999.500 1262.994 1006.241 C 1264.774 1011.029, 1266.007 1012.985, 1267.250 1012.991 C 1268.213 1012.996, 1269 1012.628, 1269 1012.173 C 1269 1011.718, 1266.997 1005.980, 1264.549 999.423 C 1247.667 954.205, 1247.927 954.655, 1244.206 964.203 M 1020.750 962.564 C 1020.337 962.987, 1020 968.433, 1020 974.667 L 1020 986 1028.050 986 C 1039.776 986, 1045 982.481, 1045 974.582 C 1045 966.173, 1040.771 962.783, 1029.561 962.208 C 1025.127 961.981, 1021.163 962.141, 1020.750 962.564 M 1242.210 980.617 C 1239.366 988.118, 1237.282 994.647, 1237.579 995.127 C 1238.154 996.058, 1257.298 996.369, 1258.205 995.462 C 1258.775 994.891, 1249.363 969.033, 1248.114 967.740 C 1247.710 967.322, 1245.053 973.117, 1242.210 980.617 M 434.310 981.443 C 431.538 988.865, 429.509 995.176, 429.802 995.468 C 430.862 996.529, 451 996.022, 451 994.935 C 451 994.350, 450.135 991.762, 449.079 989.185 C 448.022 986.608, 445.814 980.914, 444.173 976.531 C 442.531 972.148, 440.774 968.425, 440.269 968.256 C 439.764 968.088, 437.082 974.022, 434.310 981.443" stroke="none" fill="#1c140c" fill-rule="evenodd"/></svg>